<?xml version="1.0" encoding="UTF-8" standalone="no"?>
<!-- Generator: Adobe Illustrator 22.0.1, SVG Export Plug-In . SVG Version: 6.00 Build 0)  -->

<svg
   xmlns:dc="http://purl.org/dc/elements/1.1/"
   xmlns:cc="http://creativecommons.org/ns#"
   xmlns:rdf="http://www.w3.org/1999/02/22-rdf-syntax-ns#"
   xmlns:svg="http://www.w3.org/2000/svg"
   xmlns="http://www.w3.org/2000/svg"
   xmlns:sodipodi="http://sodipodi.sourceforge.net/DTD/sodipodi-0.dtd"
   xmlns:inkscape="http://www.inkscape.org/namespaces/inkscape"
   version="1.1"
   id="Layer_1"
   x="0px"
   y="0px"
   viewBox="0 0 145 144"
   style="enable-background:new 0 0 145 144;"
   xml:space="preserve"
   sodipodi:docname="alessauro.svg"
   inkscape:export-filename="/Users/Maronato/Documents/site_ales/frontend/static/img/alessauro/alessauro.png"
   inkscape:export-xdpi="524.56897"
   inkscape:export-ydpi="524.56897"
   inkscape:version="0.92.2 5c3e80d, 2017-08-06"><metadata
     id="metadata43"><rdf:RDF><cc:Work
         rdf:about=""><dc:format>image/svg+xml</dc:format><dc:type
           rdf:resource="http://purl.org/dc/dcmitype/StillImage" /><dc:title></dc:title></cc:Work></rdf:RDF></metadata><defs
     id="defs41" /><sodipodi:namedview
     pagecolor="#ffffff"
     bordercolor="#666666"
     borderopacity="1"
     objecttolerance="10"
     gridtolerance="10"
     guidetolerance="10"
     inkscape:pageopacity="0"
     inkscape:pageshadow="2"
     inkscape:window-width="750"
     inkscape:window-height="480"
     id="namedview39"
     showgrid="false"
     inkscape:zoom="1.6388889"
     inkscape:cx="72.5"
     inkscape:cy="72"
     inkscape:window-x="0"
     inkscape:window-y="0"
     inkscape:window-maximized="0"
     inkscape:current-layer="Layer_1" /><style
     type="text/css"
     id="style2">
	.st0{fill:#FFFFFF;stroke:#010101;stroke-width:0.5;stroke-miterlimit:10;}
	.st1{fill:none;stroke:#010101;stroke-width:0.5;stroke-miterlimit:10;}
	.st2{fill:#DFDFDE;}
	.st3{fill:#E3E3E3;}
	.st4{fill:#E5E5E5;}
	.st5{fill:#010101;}
	.st6{fill:#4A95D0;stroke:#010101;stroke-width:0.2822;stroke-opacity:0;}
	.st7{fill:#F6EB16;stroke:#010101;stroke-width:0.282;stroke-opacity:0;}
	.st8{enable-background:new    ;}
	.st9{fill:#676868;}
	.st10{fill:#F6EB16;}
	.st11{fill:#4A95D0;}
	.st12{fill:#0072B0;}
	.st13{fill:#C2C430;stroke:#EF4158;stroke-width:30;stroke-miterlimit:10;stroke-opacity:0;}
	.st14{fill:#FFFFFF;}
</style><g
     id="g36"><polygon
       class="st12"
       points="70.6,45.7 79.1,53.2 82.9,49.5 86.8,52.7 90.4,48.7 87.6,47.2 85.9,48.9 83.3,47.2 85.4,44.8    82.2,43.4  "
       id="polygon4" /><polygon
       class="st12"
       points="93.4,49.5 95.5,47.4 97.8,48.9 96.4,52.1  "
       id="polygon6" /><polygon
       class="st12"
       points="101.6,48.9 103.7,47 106.1,49.1 104.9,50.7  "
       id="polygon8" /><polygon
       class="st12"
       points="87.6,43.9 89.9,40.6 95.7,42.4 92.4,45.4  "
       id="polygon10" /><path
       class="st12"
       d="M78.3,56.1c0,0,7.5,10.1,8,12.7c0.5,2.6-18-11.9-18-11.9L78.3,56.1z"
       id="path12" /><path
       class="st12"
       d="M68.8,99.5c0,0-1.7,7.1-2.9,8.2c-1.3,1.1-1,4.6,1.4,6.6s8,6.1,8,6.1l13.5-0.1c0,0,1.8-3.2-4.3-6.1   c0,0-3.1-0.7-5.9,0.8c0,0-5.3-3.8-5.3-4.6c0-0.8,7.5-5,8.6-7.8s5.3-6.8,3.5-16.5C83.6,76.5,68.8,99.5,68.8,99.5z"
       id="path14" /><polygon
       class="st13"
       points="108.2,86.6 93.7,87.5 94.8,57.9 108.5,61.8  "
       id="polygon16" /><polygon
       class="st7"
       points="108.5,86.6 88.4,90.1 89.1,65.3 108.5,61.8  "
       id="polygon18" /><path
       class="st6"
       d="M15,63.3c0,0,0,28.2,21.2,28.7c0,0,8,1.7,20.2-15.7s1-26,1-26s-3-9-2.5-12c0.5-3-0.3-8.2,9.7-15   s41.2-12,43.2,0.7c0,0,2.5,5.2,3.3,15l-4.9-1.5l-2.4,4.5l-5.1-2.5l-3.1,5L90,41.9l-3.1,4.7l-4.8-2.4l-2.9,4.1l-9-2.6l8.6,7l4-3.6   l3.9,3.1l4-4.5l4.9,3.8l4.2-3.9l4.3,2.4l4.3-3.7l2.9,3.1c0,0,1.7,7.1-7,8.3s-31.1,0.7-31.1,0.7l14.1,9.8l1.9,0.5l-0.1,2.8l-2.2,0   l0,2.1l6.6,0.2l4.2-2.4l-0.9,2.2l2.1,0.4l-2.2,1.1l1.3,1.9l-2.8-0.6l-7.9,0.5c0,0,2.3,14.8-7.4,21.3s-17.1,8.6-17.1,8.6   S61.2,109,56,112c0,0-1.2,3.2,4.2,5.2c0,0,11.7-2,10.6,5.8l-13.3,0.2c0,0-9-4.8-9.6-8s-0.4-3.8,1.2-6.8c0,0-25.1-6.2-30.5-13.7   S10.4,82.8,15,63.3z"
       id="path20" /><ellipse
       class="st14"
       cx="67.8"
       cy="37.5"
       rx="4.6"
       ry="4.4"
       id="ellipse22" /><ellipse
       class="st5"
       cx="68.7"
       cy="37.6"
       rx="3.1"
       ry="3"
       id="ellipse24" /><circle
       class="st12"
       cx="62.2"
       cy="85.8"
       r="3"
       id="circle26" /><circle
       class="st12"
       cx="53.3"
       cy="85.7"
       r="1.8"
       id="circle28" /><circle
       class="st12"
       cx="65.1"
       cy="67.6"
       r="1.1"
       id="circle30" /><path
       class="st12"
       d="M54.7,78.7c0,0,4,2.4,7.4-0.6c3.4-2.9-1.5-9.5-1.5-9.5S57.1,76.2,54.7,78.7z"
       id="path32" /><ellipse
       class="st12"
       cx="102"
       cy="25.4"
       rx="1.1"
       ry="0.7"
       id="ellipse34" /></g></svg>