<?xml version="1.0" encoding="UTF-8" standalone="no"?><!-- Generator: Gravit.io --><svg xmlns="http://www.w3.org/2000/svg" xmlns:xlink="http://www.w3.org/1999/xlink" style="isolation:isolate" viewBox="0 0 145 144" width="145pt" height="144pt"><defs><clipPath id="_clipPath_sW5s37nmIHihH1tkhpo1GDICg0Mt4l11"><rect width="145" height="144"/></clipPath></defs><g clip-path="url(#_clipPath_sW5s37nmIHihH1tkhpo1GDICg0Mt4l11)"><g style="isolation:isolate"><g style="isolation:isolate"><path d=" M 64.396 105.397 C 64.862 105.264 63.93 105.529 63.93 105.529 C 63.93 105.529 62.33 107.729 57.13 110.729 C 57.13 110.729 55.93 113.929 61.33 115.929 C 61.33 115.929 73.03 113.929 71.93 121.729 L 58.63 121.929 C 58.63 121.929 49.63 117.129 49.03 113.929 C 48.43 110.732 48.629 110.13 50.226 107.137 L 64.396 105.397 L 64.396 105.397 Z " fill="rgb(74,149,208)"/><path d=" M 70.908 100.656 C 70.908 100.656 69.039 107.713 67.813 108.784 C 66.487 109.853 66.703 113.359 69.055 115.416 C 71.406 117.473 76.906 121.706 76.906 121.706 L 90.405 121.929 C 90.405 121.929 92.281 118.773 86.252 115.728 C 86.252 115.728 83.17 114.954 80.335 116.386 C 80.335 116.386 75.127 112.46 75.146 111.661 C 75.165 110.861 82.764 106.842 83.93 104.069 C 85.097 101.296 89.392 97.398 87.824 87.657 C 86.255 78.017 70.908 100.656 70.908 100.656 Z " fill="rgb(0,114,176)"/></g><g style="isolation:isolate"><path d=" M 50.168 107.359 L 43.502 89.158 Q 40.166 91.26 34 85 C 27.896 76.306 27 61 27 61 C 14.201 66.062 15.392 84.016 25 99 Q 31.055 109.772 48.815 106.934 L 50.168 107.359 Z " fill="rgb(74,149,208)"/></g><g style="isolation:isolate"><g><path d=" M 78.448 55.547 C 78.448 55.547 85.948 65.647 86.448 68.247 C 86.948 70.847 68.448 56.347 68.448 56.347 L 78.448 55.547 Z " fill="rgb(0,114,176)"/><path d=" M 73.461 57.916 Q 85.902 65.408 86.586 67.056 Q 87.273 68.712 87.048 70.947 L 87.048 73.047 L 87.048 73.047 L 87.448 76.347 C 87.448 76.347 89.748 91.147 80.048 97.647 C 74.396 101.434 69.329 104.101 63.414 106.114 L 63.414 106.114 L 50.214 107.728 L 50.214 107.728 L 43.285 89.188 C 49.371 85.061 52.812 81.075 56.548 75.747 C 60.376 70.287 62.476 65.477 61.835 57.001 L 73.461 57.916 L 73.461 57.916 Z " fill="rgb(74,149,208)"/><circle vector-effect="non-scaling-stroke" cx="62.34824224222383" cy="85.2465449362895" r="3" fill="rgb(0,114,176)"/><circle vector-effect="non-scaling-stroke" cx="53.44824224222382" cy="85.14654493628946" r="1.7999999999999972" fill="rgb(0,114,176)"/><circle vector-effect="non-scaling-stroke" cx="65.2482422422238" cy="67.04654493628945" r="1.0999999999999943" fill="rgb(0,114,176)"/><path d=" M 54.848 78.147 C 54.848 78.147 58.848 80.547 62.248 77.547 C 65.648 74.647 60.748 68.047 60.748 68.047 C 60.748 68.047 57.248 75.647 54.848 78.147 Z " fill="rgb(0,114,176)"/></g></g></g><g style="isolation:isolate"><g style="isolation:isolate"><g><path d=" M 64.654 52.977 L 76.901 56.357 L 79.989 52.443 L 84.635 53.902 L 87.436 49.622 L 84.26 49.115 L 82.896 50.98 L 79.88 50.254 L 81.5 47.702 L 77.938 47.385 L 64.654 52.977 Z " fill="rgb(0,114,176)"/><path d=" M 89.784 49.622 L 92.549 47.068 L 95.937 47.999 L 93.798 50.887 L 89.784 49.622 Z " fill="rgb(0,114,176)"/><path d=" M 98.34 46.847 L 100.031 44.573 L 103.559 45.819 L 102.021 47.504 L 98.34 46.847 Z " fill="rgb(0,114,176)"/><path d=" M 54 43.415 C 54.266 46.361 58 52.415 58 52.415 C 58 52.415 62.281 54.863 62 57.415 L 74 59.415 L 73.451 60 C 73.419 59.992 73.37 59.982 73.321 59.972 C 73.321 59.972 96.287 54.443 104.906 51.139 C 113.525 47.835 110.477 41.093 110.477 41.093 L 105.303 40.509 L 103.113 44.624 L 97.674 42 L 94.614 47.504 L 89 44 L 85.633 49.622 L 81.5 46.847 L 77 50.98 L 69 48 L 54 43.415 Z " fill="rgb(74,149,208)"/></g></g><g style="isolation:isolate"><g><mask id="_mask_CD1xYpfb52l7HPipWyEQgJpEq3GMv1ni" x="-200%" y="-200%" width="400%" height="400%"><rect x="-200%" y="-200%" width="400%" height="400%" style="fill:white;"/><path d=" M 109.901 39.087 C 110.096 40.862 110.165 41.596 110.227 42.351 L 105.327 40.851 L 102.927 45.351 L 97.827 42.851 L 94.727 47.851 L 89.127 45.251 L 86.027 49.951 L 81.227 47.551 L 78.327 51.651 L 67.007 48.449 L 109.901 39.087 L 109.901 39.087 Z " fill="black" stroke="none"/></mask><path d=" M 109.901 39.087 C 110.096 40.862 110.165 41.596 110.227 42.351 L 105.327 40.851 L 102.927 45.351 L 97.827 42.851 L 94.727 47.851 L 89.127 45.251 L 86.027 49.951 L 81.227 47.551 L 78.327 51.651 L 67.007 48.449 L 109.901 39.087 L 109.901 39.087 Z " fill="rgb(74,149,208)" mask="url(#_mask_CD1xYpfb52l7HPipWyEQgJpEq3GMv1ni)" vector-effect="non-scaling-stroke" stroke-width="1.2" stroke="rgb(0,114,176)" stroke-linejoin="miter" stroke-linecap="butt" stroke-miterlimit="4"/><path d=" M 109.901 39.087 C 110.096 40.862 110.165 41.596 110.227 42.351 L 105.327 40.851 L 102.927 45.351 L 97.827 42.851 L 94.727 47.851 L 89.127 45.251 L 86.027 49.951 L 81.227 47.551 L 78.327 51.651 L 67.007 48.449 L 109.901 39.087 L 109.901 39.087 Z " fill="rgb(74,149,208)"/><path d=" M 109.945 39.221 C 109.183 32.084 106.972 27.485 106.972 27.485 C 104.972 14.785 73.772 19.985 63.772 26.785 C 53.772 33.585 54.572 38.785 54.072 41.785 C 54.001 42.208 53.983 42.72 54.174 44.364 L 54.174 44.364 L 67.052 48.584 L 109.945 39.221 L 109.945 39.221 Z " fill="rgb(74,149,208)"/><ellipse vector-effect="non-scaling-stroke" cx="101.17184872962339" cy="28.885136596168177" rx="1.0999999999999943" ry="0.6999999999999993" fill="rgb(0,114,176)"/></g></g><g style="isolation:isolate"><g><path d=" M 68.621 43.115 C 66.446 44.196 63.763 43.227 62.634 40.954 C 61.504 38.68 62.352 35.957 64.527 34.876 C 66.702 33.796 69.385 34.764 70.514 37.038 C 71.644 39.311 70.796 42.035 68.621 43.115 Z " fill="rgb(255,255,255)"/><path d=" M 68.801 42.835 C 67.318 43.572 65.496 42.926 64.735 41.394 C 63.973 39.861 64.559 38.019 66.042 37.282 C 67.524 36.546 69.346 37.191 70.108 38.724 C 70.869 40.256 70.283 42.098 68.801 42.835 Z " fill="rgb(1,1,1)"/></g></g></g><g style="isolation:isolate"><g><path d=" M 50.311 44.245 L 79.145 16.017 L 73.865 18.619 C 73.24 18.928 72.183 19.041 71.506 18.872 L 65.689 17.418 C 61.292 16.32 55.12 18.03 51.915 21.235 L 49.601 23.548 C 45.903 27.246 44.888 34.001 47.335 38.623 L 50.311 44.245 Z " fill="rgb(227,227,0)"/><path d=" M 53.318 41.239 Q 53.15 41.403 52.608 42.206 C 52.249 42.738 52.326 43.54 52.78 43.994 L 53.604 44.818 C 54.058 45.272 54.66 45.174 54.948 44.599 L 59.367 35.761 Q 55.427 39.181 53.318 41.239 Z " fill="rgb(0,0,0)"/><path d=" M 50.31 44.818 L 79.128 16 L 73.821 19.111 C 73.219 19.464 72.182 19.613 71.505 19.444 L 65.688 17.99 C 61.291 16.892 55.119 18.602 51.914 21.807 L 49.6 24.12 C 45.902 27.818 44.887 34.573 47.334 39.195 L 50.31 44.818 Z " fill="rgb(255,255,0)"/><path d=" M 47.27 33.597 Q 48.459 27.92 52.184 24.217 Q 55.908 20.514 62.011 18.857 Q 55.577 19.037 51.29 23.324 Q 47.003 27.61 47.27 33.597 Z " fill="rgb(206,206,0)"/><path d=" M 53.077 39.404 L 51.737 38.064 C 51.49 37.818 51.49 37.417 51.737 37.171 L 53.524 35.384 C 53.77 35.137 54.171 35.137 54.417 35.384 L 55.757 36.724 L 53.077 39.404 Z " fill="rgb(206,206,0)"/><path d=" M 64.244 28.237 L 62.904 26.897 C 62.657 26.65 62.657 26.25 62.904 26.004 L 64.691 24.217 C 64.937 23.97 65.338 23.97 65.584 24.217 L 66.924 25.557 L 64.244 28.237 Z " fill="rgb(206,206,0)"/><path d=" M 50.47 44.658 L 67.947 27.181 C 68.76 26.368 69.703 25.44 70.051 25.11 L 70.051 25.11 L 68.321 24.926 C 67.939 24.885 67.406 25.068 67.13 25.335 L 48.839 43.028 C 48.288 43.561 48.209 44.363 48.664 44.818 L 48.664 44.818 C 49.118 45.272 49.927 45.201 50.47 44.658 Z " fill="rgb(227,227,0)"/><path d=" M 50.844 35.831 L 51.96 36.947 L 53.3 35.607 L 52.184 34.491 C 51.814 34.121 51.213 34.121 50.844 34.491 L 50.844 34.491 C 50.474 34.86 50.474 35.461 50.844 35.831 Z " fill="rgb(227,227,0)"/><path d=" M 62.011 24.664 L 63.127 25.78 L 64.467 24.44 L 63.351 23.324 C 62.981 22.954 62.38 22.954 62.011 23.324 L 62.011 23.324 C 61.641 23.693 61.641 24.294 62.011 24.664 Z " fill="rgb(227,227,0)"/></g></g><g><path d=" M 26 82 L 31 82 Q 31.3 95.602 31 95.974 Q 30.7 96.345 25 95.974 L 26 82 Z " fill="rgb(0,0,0)"/><rect x="25.995" y="98" width="3.99" height="33" transform="matrix(1,0,0,1,0,0)" fill="rgb(0,49,7)"/><path d=" M 13.979 99 L 42 99 L 27.99 74.958 L 13.979 99 Z  M 29.263 95.204 L 26.716 95.204 L 26.716 92.673 L 29.263 92.673 L 29.263 95.204 Z  M 29.263 90.143 L 26.716 90.143 L 26.716 83.029 L 29.263 83 L 29.263 90.143 Z " fill="rgb(255,255,0)" vector-effect="non-scaling-stroke" stroke-width="1" stroke="rgb(0,0,0)" stroke-linejoin="miter" stroke-linecap="butt" stroke-miterlimit="4"/><path d=" M 16.24 72 L 39.74 72 L 39.74 95.5 L 16.24 95.5 L 16.24 72 Z " fill="none"/></g><g><rect x="92.991" y="79.505" width="11.953" height="15.16" transform="matrix(0.856,0.516,-0.516,0.856,59.19,-38.598)" fill="rgb(255,255,255)"/><path d=" M 98.92 85.37 C 99.328 84.692 99.11 83.809 98.432 83.4 C 97.754 82.991 96.871 83.21 96.462 83.888 C 96.053 84.565 96.272 85.449 96.95 85.858 C 97.629 86.264 98.508 86.046 98.92 85.37 L 98.92 85.37 Z  M 97.322 85.241 C 96.983 85.036 96.875 84.599 97.079 84.26 C 97.283 83.921 97.729 83.811 98.063 84.012 C 98.402 84.216 98.51 84.654 98.306 84.993 C 98.101 85.332 97.661 85.445 97.322 85.241 L 97.322 85.241 Z  M 98.659 92.744 C 99.337 93.152 100.22 92.934 100.629 92.256 C 101.038 91.578 100.819 90.695 100.141 90.286 C 99.464 89.877 98.58 90.096 98.171 90.774 C 97.765 91.453 97.983 92.332 98.659 92.744 L 98.659 92.744 Z  M 99.769 90.903 C 100.108 91.107 100.216 91.545 100.012 91.884 C 99.808 92.223 99.37 92.331 99.031 92.127 C 98.692 91.922 98.584 91.485 98.788 91.146 C 98.99 90.812 99.43 90.698 99.769 90.903 Z  M 99.941 87.724 L 101.06 87.447 L 101.337 88.566 C 101.361 88.663 101.419 88.739 101.5 88.788 C 101.581 88.837 101.675 88.852 101.772 88.828 C 101.967 88.78 102.083 88.588 102.034 88.393 L 101.757 87.274 L 102.876 86.997 C 103.071 86.949 103.187 86.757 103.138 86.562 C 103.09 86.368 102.898 86.252 102.703 86.3 L 101.585 86.577 L 101.308 85.458 C 101.26 85.264 101.067 85.148 100.873 85.196 C 100.678 85.244 100.562 85.436 100.61 85.631 L 100.888 86.75 L 99.769 87.027 C 99.676 87.049 99.596 87.108 99.547 87.189 C 99.497 87.271 99.483 87.369 99.506 87.462 C 99.531 87.559 99.588 87.635 99.669 87.684 C 99.75 87.733 99.844 87.748 99.941 87.724 L 99.941 87.724 Z  M 97.569 90.045 C 97.492 90.064 97.425 90.113 97.384 90.182 C 97.343 90.25 97.33 90.332 97.35 90.409 C 97.369 90.487 97.418 90.553 97.486 90.595 C 97.554 90.636 97.636 90.648 97.714 90.629 C 97.791 90.61 97.858 90.561 97.899 90.492 C 97.94 90.424 97.953 90.342 97.933 90.265 C 97.918 90.187 97.868 90.122 97.797 90.079 C 97.731 90.039 97.65 90.025 97.569 90.045 L 97.569 90.045 Z  M 96.221 87.501 C 96.246 87.516 96.274 87.526 96.303 87.537 C 96.464 87.578 96.625 87.483 96.667 87.322 C 96.709 87.161 96.613 86.999 96.452 86.958 C 96.291 86.916 96.13 87.012 96.088 87.172 C 96.054 87.297 96.115 87.437 96.221 87.501 L 96.221 87.501 Z  M 96.143 88.385 C 96.237 88.443 96.356 88.443 96.451 88.385 C 96.545 88.327 96.6 88.221 96.591 88.11 C 96.577 87.95 96.434 87.822 96.274 87.836 C 96.114 87.85 95.986 87.994 96 88.154 C 96.007 88.255 96.062 88.336 96.143 88.385 L 96.143 88.385 Z  M 96.77 89.529 C 96.642 89.638 96.633 89.825 96.737 89.95 C 96.756 89.975 96.783 89.999 96.809 90.014 C 96.919 90.082 97.061 90.069 97.158 89.983 C 97.283 89.879 97.296 89.687 97.192 89.562 C 97.079 89.439 96.895 89.425 96.77 89.529 L 96.77 89.529 Z  M 96.223 89.109 C 96.247 89.172 96.294 89.221 96.345 89.251 C 96.42 89.297 96.523 89.31 96.613 89.275 C 96.766 89.216 96.838 89.039 96.779 88.886 C 96.719 88.733 96.542 88.66 96.389 88.72 C 96.316 88.749 96.257 88.807 96.226 88.88 C 96.194 88.953 96.194 89.036 96.223 89.109 Z  M 96.805 86.715 C 96.882 86.696 96.949 86.647 96.99 86.579 C 97.032 86.511 97.044 86.429 97.025 86.351 C 97.006 86.274 96.956 86.207 96.888 86.166 C 96.82 86.125 96.738 86.112 96.66 86.132 C 96.583 86.151 96.516 86.2 96.475 86.268 C 96.434 86.336 96.421 86.418 96.441 86.496 C 96.459 86.569 96.506 86.639 96.577 86.681 C 96.648 86.724 96.732 86.733 96.805 86.715 L 96.805 86.715 Z " fill="rgb(241,95,89)"/><path d=" M 108.263 83.246 L 98.027 77.073 C 97.787 76.928 97.474 77.005 97.33 77.246 L 89.501 90.228 C 89.357 90.465 89.431 90.778 89.673 90.925 L 99.909 97.097 C 100.147 97.241 100.46 97.168 100.606 96.925 L 108.435 83.943 C 108.582 83.7 108.505 83.392 108.263 83.246 L 108.263 83.246 Z  M 105.384 82.689 L 104.985 83.352 C 104.936 83.433 104.831 83.459 104.75 83.41 L 99.768 80.406 C 99.73 80.383 99.702 80.345 99.691 80.301 C 99.68 80.256 99.687 80.21 99.71 80.171 L 100.11 79.508 L 105.384 82.689 Z  M 99.999 95.965 L 90.638 90.32 L 97.945 78.203 L 99.25 78.99 L 98.85 79.652 C 98.512 80.214 98.696 80.938 99.252 81.274 L 104.233 84.278 C 104.795 84.616 105.519 84.433 105.855 83.876 L 106.254 83.214 L 107.306 83.848 L 99.999 95.965 Z " fill="rgb(45,66,106)"/></g><g style="isolation:isolate"><path d=" M 92.619 84.237 L 94.419 86.464 L 94.603 84.169 L 97.005 84.697 L 95.624 83.066 L 97.707 81.921 L 92.932 81.147 L 86.584 75.552 L 84.154 78.958 L 92.619 84.237 Z " fill="rgb(74,149,208)"/><path d=" M 96.061 67.637 L 98.919 67.453 L 97.151 65.978 L 98.969 64.321 L 96.839 64.508 L 97.107 62.146 L 93.718 65.598 L 85.485 67.552 L 86.864 71.502 L 96.061 67.637 Z " fill="rgb(0,114,176)"/></g><g><path d=" M 98.436 59.267 L 98.379 61.087 C 98.375 61.234 98.292 61.368 98.163 61.44 L 97.956 61.554 C 97.437 61.837 96.808 61.824 96.307 61.519 L 96.107 61.398 C 95.982 61.321 95.908 61.184 95.912 61.036 L 95.969 59.214 C 95.097 59.644 94.465 60.94 94.43 61.974 C 94.395 63.01 94.969 63.502 95.812 63.969 L 95.656 69.015 C 94.93 69.533 94.613 70.454 94.868 71.301 C 95.123 72.148 95.893 72.731 96.78 72.749 C 97.667 72.767 98.472 72.216 98.779 71.38 C 99.086 70.545 98.827 69.613 98.134 69.065 L 98.288 64.019 C 99.159 63.59 99.761 63.118 99.792 62.086 C 99.824 61.054 99.278 59.733 98.436 59.267 L 98.436 59.267 Z  M 97.799 70.707 L 97.298 71.523 L 96.346 71.503 L 95.895 70.669 L 96.396 69.854 L 97.349 69.873 L 97.799 70.707 Z " fill="rgb(194,205,231)"/><path d=" M 98.436 59.267 L 98.379 61.087 C 98.375 61.234 98.292 61.368 98.163 61.44 L 97.956 61.554 C 97.437 61.837 96.808 61.824 96.307 61.519 L 96.107 61.398 C 95.982 61.321 95.908 61.184 95.912 61.036 L 95.969 59.214 C 95.097 59.644 94.43 61.974 94.43 61.974 C 94.43 61.974 94.397 62.674 94.605 62.782 L 99.562 62.883 C 99.705 62.644 99.784 62.374 99.792 62.098 C 100.023 61.314 99.795 59.937 98.436 59.267 L 98.436 59.267 Z " fill="rgb(214,223,242)"/><path d=" M 98.536 59.087 C 98.473 59.052 98.396 59.053 98.333 59.089 C 98.27 59.125 98.231 59.191 98.229 59.263 L 98.172 61.082 C 98.171 61.159 98.127 61.229 98.059 61.264 L 97.853 61.376 C 97.396 61.625 96.842 61.611 96.403 61.339 L 96.206 61.219 C 96.14 61.18 96.101 61.109 96.103 61.033 L 96.16 59.211 C 96.162 59.139 96.127 59.071 96.067 59.032 C 96.007 58.994 95.931 58.989 95.865 59.021 C 94.888 59.514 94.259 60.906 94.225 61.972 C 94.19 63.037 94.746 63.599 95.603 64.089 L 95.459 68.919 C 94.83 69.404 94.499 70.18 94.587 70.964 C 94.68 71.793 95.223 72.5 95.999 72.803 C 96.775 73.105 97.66 72.954 98.3 72.41 L 98.393 72.321 C 98.832 71.905 99.09 71.333 99.108 70.732 C 99.128 70.057 98.845 69.413 98.336 68.976 L 98.49 64.147 C 99.376 63.692 99.965 63.153 99.999 62.089 C 100.031 61.025 99.494 59.614 98.536 59.087 L 98.536 59.087 Z  M 99.587 62.081 C 99.558 62.989 99.055 63.412 98.199 63.835 C 98.131 63.869 98.087 63.939 98.084 64.015 L 97.926 69.062 C 97.924 69.127 97.953 69.189 98.004 69.229 C 98.664 69.746 98.888 70.645 98.55 71.42 C 98.213 72.195 97.398 72.651 96.565 72.531 C 95.731 72.413 95.086 71.751 94.99 70.915 C 94.924 70.337 95.135 69.759 95.559 69.355 C 95.625 69.293 95.695 69.235 95.769 69.182 C 95.822 69.144 95.855 69.084 95.857 69.019 L 96.019 63.973 C 96.022 63.896 95.982 63.825 95.916 63.788 C 95.087 63.331 94.61 62.89 94.638 61.98 C 94.668 61.183 95.104 60.118 95.747 59.592 L 95.714 61.038 C 95.707 61.259 95.819 61.466 96.007 61.58 L 96.204 61.701 C 96.768 62.044 97.475 62.058 98.059 61.739 L 98.264 61.626 C 98.459 61.52 98.583 61.317 98.589 61.096 L 98.634 59.657 C 99.241 60.211 99.608 61.284 99.587 62.081 L 99.587 62.081 Z " fill="rgb(141,108,159)"/><path d=" M 96.402 69.65 C 96.326 69.647 96.253 69.687 96.215 69.754 L 95.714 70.569 C 95.675 70.632 95.672 70.711 95.707 70.776 L 96.157 71.611 C 96.191 71.679 96.261 71.722 96.338 71.722 L 97.291 71.742 C 97.346 71.743 97.399 71.722 97.439 71.684 C 97.453 71.673 97.466 71.66 97.478 71.647 L 97.979 70.831 C 98.018 70.768 98.021 70.689 97.986 70.624 L 97.533 69.778 C 97.499 69.71 97.429 69.667 97.353 69.666 L 96.402 69.65 Z  M 97.561 70.705 L 97.185 71.317 L 96.47 71.302 L 96.132 70.676 L 96.509 70.063 L 97.22 70.075 L 97.561 70.705 Z  M 96.063 62.628 C 95.955 62.634 95.87 62.722 95.866 62.829 C 95.863 62.937 95.943 63.028 96.05 63.039 L 98.112 63.081 C 98.219 63.074 98.305 62.987 98.308 62.879 C 98.312 62.771 98.232 62.68 98.124 62.67 L 96.063 62.628 Z  M 96.835 64.293 C 96.728 64.299 96.642 64.387 96.639 64.495 C 96.635 64.602 96.715 64.694 96.822 64.704 L 97.233 64.713 C 97.342 64.706 97.427 64.618 97.431 64.511 C 97.433 64.403 97.354 64.312 97.246 64.301 L 96.835 64.293 Z  M 96.803 65.325 C 96.726 65.317 96.651 65.353 96.609 65.419 C 96.566 65.484 96.563 65.567 96.602 65.634 C 96.64 65.701 96.713 65.741 96.79 65.736 L 97.201 65.744 C 97.309 65.738 97.395 65.65 97.399 65.543 C 97.401 65.435 97.322 65.344 97.214 65.333 L 96.803 65.325 Z  M 96.773 66.356 C 96.665 66.362 96.579 66.45 96.576 66.558 C 96.573 66.665 96.653 66.756 96.76 66.767 L 97.171 66.775 C 97.279 66.769 97.364 66.681 97.368 66.574 C 97.371 66.466 97.291 66.375 97.184 66.364 L 96.773 66.356 Z  M 96.739 67.386 C 96.632 67.392 96.546 67.48 96.543 67.587 C 96.539 67.695 96.619 67.786 96.726 67.797 L 97.139 67.803 C 97.247 67.797 97.333 67.71 97.336 67.602 C 97.339 67.494 97.259 67.403 97.152 67.392 L 96.739 67.386 Z  M 96.709 68.416 C 96.601 68.422 96.515 68.51 96.512 68.618 C 96.509 68.726 96.589 68.817 96.696 68.827 L 97.109 68.837 C 97.215 68.829 97.299 68.742 97.302 68.635 C 97.305 68.529 97.227 68.438 97.121 68.426 L 96.709 68.416 Z " fill="rgb(141,108,159)"/></g><g><path d=" M 134 127 L 134 115 C 134 114.45 134.45 114 135 114 L 136 114 C 136.55 114 137 114.45 137 115 L 137 127 C 137 127.55 136.55 128 136 128 L 135 128 C 134.45 128 134 127.55 134 127 Z " fill="rgb(84,110,122)"/><path d=" M 111 119 L 118 119 C 118.55 119 119 118.55 119 118 L 119 114 C 119 113.45 118.55 113 118 113 L 111 113 C 110.45 113 110 113.45 110 114 L 110 118 C 110 118.55 110.45 119 111 119 Z " fill="rgb(120,144,156)"/><path d=" M 102 119 L 107 119 C 107.55 119 108 118.55 108 118 L 108 114 C 108 113.45 107.55 113 107 113 L 102 113 C 101.45 113 101 113.45 101 114 L 101 118 C 101 118.55 101.45 119 102 119 Z " fill="rgb(120,144,156)"/><path d=" M 131 127 L 138.969 127 C 139.539 127 140 126.54 140 125.969 L 140 116.03 C 140 115.461 139.54 115 138.969 115 L 131 115 C 130.43 115 129.969 115.46 129.969 116.031 L 129.969 125.969 C 129.969 126.539 130.429 127 131 127 Z " fill="rgb(120,144,156)"/><path d=" M 117 130 L 117 112 C 117 111.45 117.45 111 118 111 L 131 111 C 131.55 111 132 111.45 132 112 L 132 130 C 132 130.55 131.55 131 131 131 L 118 131 C 117.45 131 117 130.55 117 130 Z " fill="rgb(144,164,174)"/><path d=" M 128 116 L 128 126 L 122 126 L 122 116 L 128 116 Z " fill="rgb(38,50,56)"/><path d=" M 134 123 L 134 119 C 134 117.898 134.898 117 136 117 C 137.102 117 138 117.898 138 119 L 138 123 C 138 124.102 137.102 125 136 125 C 134.898 125 134 124.102 134 123 Z " fill="rgb(69,90,100)"/><path d=" M 107 116 C 107 117.105 107.895 118 109 118 C 110.105 118 111 117.105 111 116 C 111 114.895 110.105 114 109 114 C 107.895 114 107 114.895 107 116 Z " fill="rgb(69,90,100)"/><path d=" M 136 118 C 136.55 118 137 118.45 137 119 C 137 119.55 136.55 120 136 120 C 135.45 120 135 119.55 135 119 C 135 118.45 135.45 118 136 118 Z  M 135 123 C 135 123.55 135.45 124 136 124 C 136.55 124 137 123.55 137 123 C 137 122.45 136.55 122 136 122 C 135.45 122 135 122.45 135 123 Z " fill="rgb(24,255,255)"/><path d=" M 123 124 L 123 122 L 127 122 L 127 124 L 123 124 Z  M 126 120 L 126 118 L 123 118 L 123 120 L 126 120 Z " fill="rgb(29,233,182)"/><path d=" M 115 119 L 115 113 L 117 113 L 117 119 L 115 119 Z " fill="rgb(96,125,139)"/><g><path d=" M 121.861 100.517 L 127.861 100.517 C 128.411 100.517 128.861 100.067 128.861 99.517 L 128.861 97.517 C 128.861 96.967 128.411 96.517 127.861 96.517 L 121.861 96.517 C 121.311 96.517 120.861 96.967 120.861 97.517 L 120.861 99.517 C 120.861 100.067 121.311 100.517 121.861 100.517 Z " fill="rgb(120,144,156)"/><path d=" M 137.564 103.869 L 132.689 98.497 C 132.296 98.111 131.664 98.114 131.275 98.505 L 129.873 99.931 C 129.486 100.321 129.49 100.958 129.881 101.345 L 134.756 106.712 C 135.15 107.099 135.781 107.095 136.17 106.704 L 137.576 105.283 C 137.96 104.888 137.954 104.258 137.564 103.869 Z " fill="rgb(120,144,156)"/><path d=" M 127.861 98.517 C 127.861 99.622 128.757 100.517 129.861 100.517 C 130.966 100.517 131.861 99.622 131.861 98.517 C 131.861 97.413 130.966 96.517 129.861 96.517 C 128.757 96.517 127.861 97.413 127.861 98.517 Z " fill="rgb(69,90,100)"/><path d=" M 118.861 101.517 C 118.309 101.517 117.861 101.07 117.861 100.517 C 117.861 99.965 118.309 99.517 118.861 99.517 C 119.411 99.517 119.861 99.067 119.861 98.517 C 119.861 97.967 119.411 97.517 118.861 97.517 C 118.309 97.517 117.861 97.07 117.861 96.517 C 117.861 95.965 118.309 95.517 118.861 95.517 C 119.845 95.517 120.716 96.001 121.263 96.74 C 121.025 96.92 120.861 97.197 120.861 97.517 L 120.861 99.517 C 120.861 99.837 121.025 100.115 121.263 100.294 C 120.702 101.061 119.811 101.515 118.861 101.517 Z " fill="rgb(144,164,174)"/></g><g><path d=" M 132.495 139.227 L 126.514 139.705 C 125.966 139.749 125.481 139.336 125.437 138.788 L 125.278 136.794 C 125.234 136.246 125.647 135.762 126.195 135.718 L 132.176 135.239 C 132.724 135.195 133.209 135.608 133.253 136.156 L 133.412 138.15 C 133.456 138.698 133.043 139.183 132.495 139.227 Z " fill="rgb(120,144,156)"/><path d=" M 114.004 138.336 L 114.196 140.326 C 114.249 140.875 114.736 141.278 115.285 141.228 L 122.456 140.143 C 122.721 140.118 122.964 139.989 123.133 139.784 C 123.301 139.579 123.382 139.315 123.356 139.051 L 123.167 137.063 C 123.114 136.516 122.625 136.109 122.079 136.161 L 114.906 137.247 C 114.358 137.302 113.956 137.787 114.004 138.336 Z " fill="rgb(120,144,156)"/><path d=" M 124.201 135.877 C 123.1 135.965 122.279 136.929 122.367 138.03 C 122.455 139.131 123.419 139.952 124.52 139.864 C 125.621 139.776 126.443 138.812 126.355 137.711 C 126.267 136.61 125.303 135.789 124.201 135.877 Z " fill="rgb(69,90,100)"/><path d=" M 132.79 135.414 C 133.053 135.575 133.224 135.85 133.253 136.156 L 133.412 138.15 C 133.433 138.457 133.307 138.756 133.073 138.957 C 133.693 139.676 134.618 140.057 135.565 139.984 C 136.118 139.94 136.526 139.461 136.482 138.908 C 136.438 138.354 135.959 137.946 135.406 137.991 C 134.857 138.034 134.373 137.622 134.329 137.073 C 134.285 136.525 134.698 136.041 135.246 135.997 C 135.799 135.953 136.208 135.474 136.163 134.92 C 136.119 134.367 135.64 133.959 135.087 134.003 C 134.106 134.082 133.276 134.634 132.79 135.414 Z " fill="rgb(144,164,174)"/></g><path d=" M 100 120 C 101.102 120 102 119.102 102 118 L 102 114 C 102 112.898 101.102 112 100 112 L 100 120 Z " fill="rgb(144,164,174)"/><g><path d=" M 106.5 133 L 113.5 133 C 114.05 133 114.5 132.55 114.5 132 L 114.5 128 C 114.5 127.45 114.05 127 113.5 127 L 106.5 127 C 105.95 127 105.5 127.45 105.5 128 L 105.5 132 C 105.5 132.55 105.95 133 106.5 133 Z " fill="rgb(120,144,156)"/><path d=" M 100.254 135.872 L 104.522 133.267 C 104.991 132.981 105.141 132.362 104.854 131.893 L 102.771 128.478 C 102.484 128.009 101.866 127.859 101.396 128.146 L 97.128 130.75 C 96.659 131.037 96.509 131.655 96.796 132.125 L 98.879 135.539 C 99.166 136.009 99.784 136.158 100.254 135.872 Z " fill="rgb(120,144,156)"/><path d=" M 102.5 130 C 102.5 131.105 103.395 132 104.5 132 C 105.605 132 106.5 131.105 106.5 130 C 106.5 128.895 105.605 128 104.5 128 C 103.395 128 102.5 128.895 102.5 130 Z " fill="rgb(69,90,100)"/><path d=" M 99.067 137.767 C 100.008 137.193 100.307 135.959 99.733 135.018 L 97.649 131.604 C 97.075 130.663 95.841 130.364 94.9 130.938 L 99.067 137.767 Z " fill="rgb(144,164,174)"/></g></g></g></svg>