<?xml version="1.0" encoding="UTF-8" standalone="no"?><!-- Generator: Gravit.io --><svg xmlns="http://www.w3.org/2000/svg" xmlns:xlink="http://www.w3.org/1999/xlink" style="isolation:isolate" viewBox="0 0 145 144" width="145pt" height="144pt"><defs><clipPath id="_clipPath_MutyqyRn4Gq1CaCp9cPtRjzAQgOCVJKS"><rect width="145" height="144"/></clipPath></defs><g clip-path="url(#_clipPath_MutyqyRn4Gq1CaCp9cPtRjzAQgOCVJKS)"><g><path d=" M 113.689 81.065 L 106.68 74.67 L 97.237 73.759 L 87.496 95.696 L 96.939 96.607 L 103.948 103.001 L 113.392 103.912 L 123.133 81.976 L 113.689 81.065 Z " fill="rgb(255,236,179)"/><path d=" M 106.68 74.67 L 96.939 96.607 L 103.948 103.001 L 113.689 81.065 L 106.68 74.67 Z " fill="rgb(255,224,130)"/><path d=" M 93.895 89.965 C 99.651 79.654 102.7 94.719 106.97 88.644 C 107.234 76.141 98.606 90.845 110.008 85.782 C 110.294 85.609 110.65 85.442 110.976 85.518 C 111.354 85.606 111.672 85.91 111.901 86.223 C 112.131 86.537 112.179 86.952 112.297 87.323 C 112.399 87.642 112.466 87.971 112.561 88.292 C 112.657 88.617 112.767 88.937 112.869 89.26 C 112.972 89.583 113.071 89.907 113.178 90.229" fill="none" vector-effect="non-scaling-stroke" stroke-width="0.5" stroke-dasharray="1,1" stroke="rgb(0,0,0)" stroke-linejoin="miter" stroke-linecap="square" stroke-miterlimit="3"/><path d=" M 112.549 90.559 L 114.466 92.402 L 114.442 92.378" fill="none" vector-effect="non-scaling-stroke" stroke-width="0.5" stroke="rgb(0,0,0)" stroke-linejoin="miter" stroke-linecap="square" stroke-miterlimit="3"/><path d=" M 112.598 92.208 L 114.514 90.365 L 114.49 90.389" fill="none" vector-effect="non-scaling-stroke" stroke-width="0.5" stroke="rgb(0,0,0)" stroke-linejoin="miter" stroke-linecap="square" stroke-miterlimit="3"/></g><g style="isolation:isolate"><path d=" M 92.619 84.237 L 94.419 86.464 L 94.603 84.169 L 97.005 84.697 L 95.624 83.066 L 97.707 81.921 L 92.932 81.147 L 86.584 75.552 L 84.154 78.958 L 92.619 84.237 Z " fill="rgb(74,149,208)"/><path d=" M 96.061 67.637 L 98.919 67.453 L 97.151 65.978 L 98.969 64.321 L 96.839 64.508 L 97.107 62.146 L 93.718 65.598 L 85.485 67.552 L 86.864 71.502 L 96.061 67.637 Z " fill="rgb(0,114,176)"/></g><g style="isolation:isolate"><g style="isolation:isolate"><path d=" M 64.396 105.397 C 64.862 105.264 63.93 105.529 63.93 105.529 C 63.93 105.529 62.33 107.729 57.13 110.729 C 57.13 110.729 55.93 113.929 61.33 115.929 C 61.33 115.929 73.03 113.929 71.93 121.729 L 58.63 121.929 C 58.63 121.929 49.63 117.129 49.03 113.929 C 48.43 110.732 48.629 110.13 50.226 107.137 L 64.396 105.397 L 64.396 105.397 Z " fill="rgb(74,149,208)"/><path d=" M 70.296 101.145 C 70.296 101.145 71.662 108.317 71.02 109.813 C 70.286 111.35 71.997 114.417 75.007 115.255 C 78.017 116.093 84.807 117.531 84.807 117.531 L 97.074 111.895 C 97.074 111.895 97.401 108.238 90.648 108.099 C 90.648 108.099 87.534 108.734 85.597 111.252 C 85.597 111.252 79.204 109.964 78.876 109.235 C 78.547 108.506 83.66 101.596 83.513 98.591 C 83.366 95.586 85.552 90.214 79.927 82.109 C 74.343 74.096 70.296 101.145 70.296 101.145 Z " fill="rgb(0,114,176)"/></g><g style="isolation:isolate"><path d=" M 50.168 107.359 L 43.502 89.158 Q 39.933 87.483 39.933 87.483 C 21.487 73.417 1.729 81.624 1.729 81.624 C 20.406 86.351 22.366 95.343 29.053 100.416 Q 33.318 103.413 48.815 106.934 L 50.168 107.359 Z " fill="rgb(74,149,208)"/></g><g style="isolation:isolate"><g><path d=" M 78.448 55.547 C 78.448 55.547 85.948 65.647 86.448 68.247 C 86.948 70.847 68.448 56.347 68.448 56.347 L 78.448 55.547 Z " fill="rgb(0,114,176)"/><path d=" M 73.461 57.916 Q 85.902 65.408 86.586 67.056 Q 87.273 68.712 87.048 70.947 L 87.048 73.047 L 87.048 73.047 L 87.448 76.347 C 87.448 76.347 89.748 91.147 80.048 97.647 C 74.396 101.434 69.329 104.101 63.414 106.114 L 63.414 106.114 L 50.214 107.728 L 50.214 107.728 L 43.285 89.188 C 49.371 85.061 52.812 81.075 56.548 75.747 C 60.376 70.287 62.476 65.477 61.835 57.001 L 73.461 57.916 L 73.461 57.916 Z " fill="rgb(74,149,208)"/><circle vector-effect="non-scaling-stroke" cx="62.34824224222383" cy="85.2465449362895" r="3" fill="rgb(0,114,176)"/><circle vector-effect="non-scaling-stroke" cx="53.44824224222382" cy="85.14654493628946" r="1.7999999999999972" fill="rgb(0,114,176)"/><circle vector-effect="non-scaling-stroke" cx="65.2482422422238" cy="67.04654493628945" r="1.0999999999999943" fill="rgb(0,114,176)"/><path d=" M 54.848 78.147 C 54.848 78.147 58.848 80.547 62.248 77.547 C 65.648 74.647 60.748 68.047 60.748 68.047 C 60.748 68.047 57.248 75.647 54.848 78.147 Z " fill="rgb(0,114,176)"/></g></g></g><g style="isolation:isolate"><g style="isolation:isolate"><g><path d=" M 66.855 48.49 L 77.326 55.686 L 81.523 52.995 L 85.438 55.892 L 89.484 52.761 L 86.647 51.246 L 84.749 52.562 L 82.136 50.891 L 84.501 49.008 L 81.238 47.545 L 66.855 48.49 Z " fill="rgb(0,114,176)"/><path d=" M 91.703 53.529 L 95.15 52.018 L 98.049 54.005 L 95.084 56.036 L 91.703 53.529 Z " fill="rgb(0,114,176)"/><path d=" M 100.696 53.701 L 103.038 52.104 L 105.965 54.435 L 103.96 55.525 L 100.696 53.701 Z " fill="rgb(0,114,176)"/><path d=" M 54.177 44.148 C 54.055 46.136 56.666 51.903 56.666 51.903 C 56.666 51.903 62.976 56.137 61.877 58.458 L 71.07 60.138 L 71.07 60.138 C 71.043 60.121 71 60.095 70.957 60.07 C 70.957 60.07 94.47 62.346 103.695 62.039 C 112.921 61.733 112.242 54.364 112.242 54.364 L 107.543 52.122 L 104.129 55.296 L 99.439 52.216 L 95.003 55.682 L 90.139 52.184 L 85.524 55.614 L 81.282 52.623 L 77.291 55.567 L 68.982 49.227 L 54.177 44.148 Z " fill="rgb(74,149,208)"/></g></g><g style="isolation:isolate"><g><path d=" M 109.901 39.087 C 110.096 40.862 110.165 41.596 110.227 42.351 L 105.327 40.851 L 102.927 45.351 L 97.827 42.851 L 94.727 47.851 L 89.127 45.251 L 86.027 49.951 L 81.227 47.551 L 78.327 51.651 L 67.007 48.449 L 109.901 39.087 L 109.901 39.087 Z " fill="rgb(74,149,208)"/><path d=" M 109.945 39.221 C 109.183 32.084 106.972 27.485 106.972 27.485 C 104.972 14.785 73.772 19.985 63.772 26.785 C 53.772 33.585 54.572 38.785 54.072 41.785 C 54.001 42.208 53.983 42.72 54.174 44.364 L 54.174 44.364 L 67.052 48.584 L 109.945 39.221 L 109.945 39.221 Z " fill="rgb(74,149,208)"/><ellipse vector-effect="non-scaling-stroke" cx="101.17184872962339" cy="28.885136596168177" rx="1.0999999999999943" ry="0.6999999999999993" fill="rgb(0,114,176)"/></g></g><g style="isolation:isolate"><g><ellipse vector-effect="non-scaling-stroke" cx="66.57398936310932" cy="38.995839763597864" rx="4.599999999999998" ry="4.399999999999999" fill="rgb(255,255,255)"/><ellipse vector-effect="non-scaling-stroke" cx="65.24523922268071" cy="39.281568941966924" rx="3.099999999999998" ry="3" fill="rgb(1,1,1)"/></g></g></g><g style="isolation:isolate"><g><path d=" M 49.817 28.013 L 55.213 34.788 L 76.032 20.572 L 76.278 16.532 L 69.158 20.72 L 61.57 15.645 L 50.261 23.578 L 49.817 28.013 Z " fill="rgb(0,158,255)"/><path d=" M 52.764 30.508 L 54.322 32.264 L 55.061 31.63 L 53.595 29.888 L 52.764 30.508 Z " fill="rgb(255,255,2)"/><path d=" M 53.544 19.157 L 54.19 19.871 L 55.397 18.783 L 54.904 18.154 L 53.544 19.157 Z " fill="rgb(255,255,2)"/><path d=" M 51.254 21.425 L 53.424 19.96 C 53.372 19.917 53.317 19.871 53.271 19.818 C 52.911 19.397 52.988 18.799 53.454 18.485 L 54.206 17.977 C 54.667 17.665 55.338 17.751 55.703 18.176 C 55.748 18.229 55.789 18.285 55.816 18.344 L 59.742 15.692 C 60.882 14.922 62.46 14.974 63.581 15.826 L 68.888 19.854 L 74.775 15.878 C 75.27 15.543 75.939 15.483 76.513 15.724 C 77.088 15.965 77.477 16.464 77.528 17.024 L 77.62 18.053 C 77.751 19.51 77.066 20.937 75.838 21.766 L 69.617 25.968 L 55.263 35.817 L 50.101 29.796 C 47.836 27.145 48.347 23.388 51.254 21.425 L 51.254 21.425 Z  M 74.764 20.513 C 75.536 19.992 75.965 19.08 75.878 18.139 L 75.795 17.174 L 69.306 21.557 C 69.209 21.622 69.143 21.723 69.128 21.831 L 68.669 24.63 L 74.764 20.513 L 74.764 20.513 Z  M 62.924 28.566 L 67.148 25.671 C 66.924 25.375 66.828 25.021 66.89 24.664 L 67.399 21.566 C 67.437 21.34 67.517 21.123 67.636 20.923 L 62.477 17.005 C 61.994 16.638 61.315 16.615 60.82 16.949 L 55.846 20.309 L 62.924 28.566 L 62.924 28.566 Z  M 54.229 19.388 L 54.981 18.88 C 55.063 18.824 55.078 18.716 55.013 18.641 C 54.949 18.566 54.828 18.55 54.745 18.605 L 53.993 19.113 C 53.911 19.169 53.896 19.277 53.96 19.352 C 54.025 19.428 54.146 19.444 54.229 19.388 Z  M 54.193 32.03 L 54.605 31.752 C 54.731 31.667 54.754 31.505 54.655 31.39 L 53.722 30.301 C 53.623 30.185 53.441 30.161 53.315 30.247 L 52.903 30.525 L 54.193 32.03 Z  M 52.364 29.896 L 52.776 29.618 C 53.281 29.277 54.016 29.375 54.411 29.835 L 55.344 30.924 C 55.739 31.385 55.649 32.04 55.144 32.381 L 54.732 32.659 L 55.559 33.624 L 62.243 29.04 L 55.157 20.774 L 52.327 22.685 C 50.178 24.137 49.797 26.911 51.478 28.873 L 52.364 29.896 L 52.364 29.896 Z " fill="rgb(0,0,0)"/></g></g></g></svg>