<?xml version="1.0" encoding="UTF-8" standalone="no"?><!-- Generator: Gravit.io --><svg xmlns="http://www.w3.org/2000/svg" xmlns:xlink="http://www.w3.org/1999/xlink" style="isolation:isolate" viewBox="0 0 145 144" width="145pt" height="144pt"><defs><clipPath id="_clipPath_5mnNWSZdZ6QOywna7SUPj9oQFEKoemE5"><rect width="145" height="144"/></clipPath></defs><g clip-path="url(#_clipPath_5mnNWSZdZ6QOywna7SUPj9oQFEKoemE5)"><path d=" M 124.591 53.675 L 124.591 53.675 C 124.68 53.746 124.362 54.144 123.88 54.563 L 94.497 80.101 C 94.015 80.52 93.45 80.655 93.236 80.403 L 93.236 80.403 C 93.022 80.151 93.245 79.614 93.735 79.205 L 123.543 54.286 C 124.032 53.877 124.502 53.603 124.591 53.675 Z " fill="rgb(0,0,0)"/><g style="isolation:isolate"><path d=" M 96.006 78.349 L 98.573 79.617 L 97.779 77.457 L 100.182 76.93 L 98.244 76.027 L 99.657 74.115 L 94.996 75.411 L 86.889 72.988 L 86.108 77.098 L 96.006 78.349 Z " fill="rgb(74,149,208)"/><path d=" M 95.854 69.887 L 98.654 70.487 L 97.354 68.587 L 99.554 67.487 L 97.454 67.087 L 98.354 64.887 L 94.154 67.287 L 85.7 66.927 L 85.952 71.103 L 95.854 69.887 Z " fill="rgb(0,114,176)"/></g><g style="isolation:isolate"><g style="isolation:isolate"><path d=" M 64.396 105.397 C 64.862 105.264 63.93 105.529 63.93 105.529 C 63.93 105.529 62.33 107.729 57.13 110.729 C 57.13 110.729 55.93 113.929 61.33 115.929 C 61.33 115.929 73.03 113.929 71.93 121.729 L 58.63 121.929 C 58.63 121.929 49.63 117.129 49.03 113.929 C 48.43 110.732 48.629 110.13 50.226 107.137 L 64.396 105.397 L 64.396 105.397 Z " fill="rgb(74,149,208)"/><path d=" M 68.8 99.5 C 68.8 99.5 67.1 106.6 65.9 107.7 C 64.6 108.8 64.9 112.3 67.3 114.3 C 69.7 116.3 75.3 120.4 75.3 120.4 L 88.8 120.3 C 88.8 120.3 90.6 117.1 84.5 114.2 C 84.5 114.2 81.4 113.5 78.6 115 C 78.6 115 73.3 111.2 73.3 110.4 C 73.3 109.6 80.8 105.4 81.9 102.6 C 83 99.8 87.2 95.8 85.4 86.1 C 83.6 76.5 68.8 99.5 68.8 99.5 Z " fill="rgb(0,114,176)"/></g><g style="isolation:isolate"><path d=" M 50.168 107.359 L 43.502 89.158 Q 34.642 89.27 34.642 89.27 C 13.442 88.77 13.75 61.952 13.75 61.952 C 9.15 81.452 11.95 85.852 17.35 93.352 Q 20.485 97.706 48.815 106.934 L 50.168 107.359 Z " fill="rgb(74,149,208)"/></g><g style="isolation:isolate"><g><path d=" M 78.448 55.547 C 78.448 55.547 85.948 65.647 86.448 68.247 C 86.948 70.847 68.448 56.347 68.448 56.347 L 78.448 55.547 Z " fill="rgb(0,114,176)"/><path d=" M 73.461 57.916 Q 85.902 65.408 86.586 67.056 Q 87.273 68.712 87.048 70.947 L 87.048 73.047 L 87.048 73.047 L 87.448 76.347 C 87.448 76.347 89.748 91.147 80.048 97.647 C 74.396 101.434 69.329 104.101 63.414 106.114 L 63.414 106.114 L 50.214 107.728 L 50.214 107.728 L 43.285 89.188 C 49.371 85.061 52.812 81.075 56.548 75.747 C 60.376 70.287 62.476 65.477 61.835 57.001 L 73.461 57.916 L 73.461 57.916 Z " fill="rgb(74,149,208)"/><circle vector-effect="non-scaling-stroke" cx="62.34824224222383" cy="85.2465449362895" r="3" fill="rgb(0,114,176)"/><circle vector-effect="non-scaling-stroke" cx="53.44824224222382" cy="85.14654493628946" r="1.7999999999999972" fill="rgb(0,114,176)"/><circle vector-effect="non-scaling-stroke" cx="65.2482422422238" cy="67.04654493628945" r="1.0999999999999943" fill="rgb(0,114,176)"/><path d=" M 54.848 78.147 C 54.848 78.147 58.848 80.547 62.248 77.547 C 65.648 74.647 60.748 68.047 60.748 68.047 C 60.748 68.047 57.248 75.647 54.848 78.147 Z " fill="rgb(0,114,176)"/></g></g></g><g style="isolation:isolate"><g style="isolation:isolate"><g><path d=" M 69.017 46.613 L 78.332 51.938 L 81.507 47.882 L 85.856 50.227 L 88.779 45.708 L 85.777 44.67 L 84.367 46.617 L 81.531 45.35 L 83.225 42.648 L 79.844 41.772 L 69.017 46.613 Z " fill="rgb(0,114,176)"/><path d=" M 91.02 46.047 L 93.807 43.508 L 96.987 45.065 L 94.778 48.078 L 91.02 46.047 Z " fill="rgb(0,114,176)"/><path d=" M 99.348 44.086 L 101.094 41.714 L 104.389 43.654 L 102.822 45.37 L 99.348 44.086 Z " fill="rgb(0,114,176)"/><path d=" M 54.149 44.343 C 54.548 46.633 57.415 52.819 57.415 52.819 C 57.415 52.819 63.36 56.481 62.166 59.409 L 73.79 58.474 L 73.79 58.474 C 73.76 58.46 73.714 58.442 73.668 58.423 C 73.668 58.423 95.865 55.375 104.266 52.815 C 112.667 50.255 110.147 42.04 110.147 42.04 L 105.251 40.617 L 102.93 45.045 L 97.826 42.666 L 94.641 47.67 L 89.271 44.859 L 85.911 49.865 L 81.243 47.481 L 78.332 51.785 L 69.063 46.568 L 54.149 44.343 Z " fill="rgb(74,149,208)"/></g></g><g style="isolation:isolate"><g><mask id="_mask_ixNdUeZKuAJdmMf5G4pC4meFYgmO5xO2" x="-200%" y="-200%" width="400%" height="400%"><rect x="-200%" y="-200%" width="400%" height="400%" style="fill:white;"/><path d=" M 109.901 39.087 C 110.096 40.862 110.165 41.596 110.227 42.351 L 105.327 40.851 L 102.927 45.351 L 97.827 42.851 L 94.727 47.851 L 89.127 45.251 L 86.027 49.951 L 81.227 47.551 L 78.327 51.651 L 67.007 48.449 L 109.901 39.087 L 109.901 39.087 Z " fill="black" stroke="none"/></mask><path d=" M 109.901 39.087 C 110.096 40.862 110.165 41.596 110.227 42.351 L 105.327 40.851 L 102.927 45.351 L 97.827 42.851 L 94.727 47.851 L 89.127 45.251 L 86.027 49.951 L 81.227 47.551 L 78.327 51.651 L 67.007 48.449 L 109.901 39.087 L 109.901 39.087 Z " fill="rgb(74,149,208)" mask="url(#_mask_ixNdUeZKuAJdmMf5G4pC4meFYgmO5xO2)" vector-effect="non-scaling-stroke" stroke-width="1.2" stroke="rgb(0,114,176)" stroke-linejoin="miter" stroke-linecap="butt" stroke-miterlimit="4"/><path d=" M 109.901 39.087 C 110.096 40.862 110.165 41.596 110.227 42.351 L 105.327 40.851 L 102.927 45.351 L 97.827 42.851 L 94.727 47.851 L 89.127 45.251 L 86.027 49.951 L 81.227 47.551 L 78.327 51.651 L 67.007 48.449 L 109.901 39.087 L 109.901 39.087 Z " fill="rgb(74,149,208)"/><path d=" M 109.945 39.221 C 109.183 32.084 106.972 27.485 106.972 27.485 C 104.972 14.785 73.772 19.985 63.772 26.785 C 53.772 33.585 54.572 38.785 54.072 41.785 C 54.001 42.208 53.983 42.72 54.174 44.364 L 54.174 44.364 L 67.052 48.584 L 109.945 39.221 L 109.945 39.221 Z " fill="rgb(74,149,208)"/><ellipse vector-effect="non-scaling-stroke" cx="101.17184872962339" cy="28.885136596168177" rx="1.0999999999999943" ry="0.6999999999999993" fill="rgb(0,114,176)"/></g></g><g style="isolation:isolate"><g><ellipse vector-effect="non-scaling-stroke" cx="66.57398936310932" cy="38.995839763597864" rx="4.599999999999998" ry="4.399999999999999" fill="rgb(255,255,255)"/><ellipse vector-effect="non-scaling-stroke" cx="67.47398936310933" cy="39.09583976359788" rx="3.0999999999999943" ry="3" fill="rgb(1,1,1)"/></g></g></g><g style="isolation:isolate"><g><g><g><path d=" M 47.69 40.732 C 47.693 40.731 47.697 40.729 47.7 40.727 C 48.044 41.412 48.304 42.811 48.309 43.211 C 48.315 43.744 47.887 44.182 47.354 44.189 C 46.821 44.195 46.383 43.768 46.376 43.235 C 46.371 42.835 46.597 41.429 46.934 40.742 C 46.914 40.734 46.924 40.738 46.934 40.742 L 47.7 40.727 L 47.69 40.732 Z " fill="rgb(255,0,0)"/><path d=" M 47.7 40.727 C 48.039 40.574 48.272 40.229 48.267 39.836 C 48.263 39.456 48.033 39.137 47.712 38.984 L 47.644 33.402 L 47.644 33.402 L 46.796 33.071 L 46.868 38.995 C 46.55 39.157 46.329 39.479 46.333 39.861 C 46.338 40.247 46.572 40.581 46.906 40.727 L 47.7 40.727 L 47.7 40.727 Z " fill="rgb(0,0,0)"/><path d=" M 47.298 33.723 L 58.786 29.581 C 58.957 29.519 59.098 29.395 59.184 29.234 L 65.266 17.614 C 65.302 17.546 65.291 17.464 65.24 17.407 C 65.189 17.35 65.108 17.331 65.038 17.359 L 52.976 22.152 C 52.821 22.213 52.692 22.326 52.61 22.47 L 46.225 33.772 C 46.188 33.837 46.195 33.92 46.245 33.978 C 46.295 34.037 46.374 34.059 46.447 34.031 L 47.313 33.74 L 47.298 33.723 L 47.298 33.723 Z " fill="rgb(0,0,0)"/><path d=" M 63.957 21.935 C 64.856 22.967 65.914 24.181 66.082 24.374 C 67.758 26.294 66.231 30.379 62.683 33.647 C 58.964 36.719 54.712 37.679 53.035 35.757 C 52.868 35.566 51.808 34.351 50.907 33.321 L 59.383 30.264 C 59.555 30.202 59.696 30.078 59.781 29.916 L 63.957 21.935 Z " fill="rgb(0,0,0)"/></g></g></g></g></g></svg>