<?xml version="1.0" encoding="UTF-8" standalone="no"?>
<svg
   xmlns:dc="http://purl.org/dc/elements/1.1/"
   xmlns:cc="http://creativecommons.org/ns#"
   xmlns:rdf="http://www.w3.org/1999/02/22-rdf-syntax-ns#"
   xmlns:svg="http://www.w3.org/2000/svg"
   xmlns="http://www.w3.org/2000/svg"
   xmlns:sodipodi="http://sodipodi.sourceforge.net/DTD/sodipodi-0.dtd"
   xmlns:inkscape="http://www.inkscape.org/namespaces/inkscape"
   width="249.37436"
   height="210.30336"
   version="1.1"
   id="svg9"
   sodipodi:docname="logo-unicamp2.svg"
   inkscape:version="0.92.2 5c3e80d, 2017-08-06">
  <metadata
     id="metadata15">
    <rdf:RDF>
      <cc:Work
         rdf:about="">
        <dc:format>image/svg+xml</dc:format>
        <dc:type
           rdf:resource="http://purl.org/dc/dcmitype/StillImage" />
        <dc:title></dc:title>
      </cc:Work>
    </rdf:RDF>
  </metadata>
  <defs
     id="defs13" />
  <sodipodi:namedview
     pagecolor="#ffffff"
     bordercolor="#666666"
     borderopacity="1"
     objecttolerance="10"
     gridtolerance="10"
     guidetolerance="10"
     inkscape:pageopacity="0"
     inkscape:pageshadow="2"
     inkscape:window-width="1161"
     inkscape:window-height="740"
     id="namedview11"
     showgrid="false"
     fit-margin-top="0"
     fit-margin-left="0"
     fit-margin-right="0"
     fit-margin-bottom="0"
     inkscape:zoom="0.89056604"
     inkscape:cx="124.37942"
     inkscape:cy="77.80336"
     inkscape:window-x="0"
     inkscape:window-y="0"
     inkscape:window-maximized="0"
     inkscape:current-layer="svg9" />
  <desc
     id="desc2">Logo of UNICAMP</desc>
  <path
     style="fill:#ed1d24;fill-rule:evenodd"
     inkscape:connector-curvature="0"
     d="m 160.75254,0 c -5.29605,0 -9.70575,4.28616 -9.70575,9.58233 0,5.29602 4.4097,9.70573 9.70575,9.70573 5.29604,0 9.58234,-4.40971 9.58234,-9.70573 C 170.33488,4.2862 166.04866,0 160.75254,0 m 79.02635,120.46877 c -5.28282,0 -9.69258,4.40971 -9.69258,9.70573 0,5.27853 4.40976,9.58231 9.69258,9.58231 5.29169,0 9.59547,-4.30377 9.59547,-9.58231 0,-5.29603 -4.30382,-9.70573 -9.59547,-9.70573 M 138.49236,191.0109 c -5.29604,0 -9.59991,4.30377 -9.59991,9.59991 0,5.28282 4.30388,9.69255 9.59991,9.69255 5.28285,0 9.58231,-4.40976 9.58231,-9.69255 0,-5.29614 -4.29945,-9.59991 -9.58231,-9.59991"
     id="path24" />
  <path
     style="fill:#000000;fill-rule:evenodd"
     inkscape:connector-curvature="0"
     d="m 148.41409,126.97361 h 73.72604 c 0.88618,-4.19099 3.43074,-7.82105 7.05974,-10.13174 -2.86632,-9.48969 -6.06313,-18.86296 -9.58667,-28.0034 l -72.85258,29.87312 c 0.86855,2.64582 1.3141,5.401 1.65347,8.26202 m -76.287917,0 c 0.23389,-2.86102 0.78493,-5.72202 1.65382,-8.60069 L 1.0286533,87.95301 c -1.64922996,13.01392 -1.31408996,26.1302 0.99659,39.02061 H 72.126173 Z M 144.32647,112.7532 217.17905,82.88713 c -3.51897,-8.48428 -7.48311,-16.8733 -11.78699,-25.01538 -2.20485,-3.86008 -4.51552,-7.60868 -6.94966,-11.36117 l -58.97118,58.97189 c 1.88313,2.20485 3.53654,4.74483 4.85527,7.27073 m 13.22452,-87.40038 -29.65085,70.86927 c 2.53995,1.32644 4.85068,2.86102 7.05553,4.74484 l 59.85735,-59.75681 c -3.09105,-3.95992 -6.29248,-7.58928 -9.8114,-11.02 -3.85869,-3.62901 -8.05212,-6.93629 -12.46185,-9.79837 -3.73944,4.18075 -9.48085,6.06352 -14.98872,4.96109 M 80.945653,105.48249 21.868993,46.40478 C 13.155413,56.76759 6.5450833,68.76905 2.4705233,81.67714 l 73.8537597,30.86085 c 1.20826,-2.53996 2.86208,-4.9565 4.62137,-7.05553 m 67.468507,27.89407 c -0.67451,7.93042 -3.85832,15.43044 -8.94289,21.49464 l 28.88815,28.97356 c 21.05194,-11.6769 40.55591,-25.79146 58.31396,-42.09682 -2.32835,-2.20132 -3.98215,-5.18582 -4.63899,-8.37138 h -73.62021 -3e-5 z m -20.96524,30.93532 8.26807,20.60924 c 6.49104,-1.10419 12.78389,1.76389 16.3028,7.27069 3.54089,-1.65448 7.05978,-3.41487 10.47287,-5.27753 L 134.9557,159.38674 c -2.31071,1.97556 -4.85495,3.62305 -7.48772,4.95651 m 2.31528,22.81053 -8.15796,-20.39047 c -12.57226,3.85928 -26.123107,1.10414 -36.040707,-7.37657 l -31.96578,31.96509 c 21.15777,11.13008 45.30074,15.20107 68.892667,11.34177 -0.78036,-6.17004 2.08137,-12.2343 7.27178,-15.53981 M 81.051423,154.87114 c -1.97556,-2.20485 -3.51895,-4.63896 -4.83727,-7.29185 l -52.14037,21.38884 c 7.27143,7.16493 15.21772,13.56425 23.90943,19.07463 l 33.06821,-33.17165 z M 3.7891333,133.3765 c 4.08762,10.79147 9.4762797,20.93733 15.9807697,30.52577 l 54.01009,-22.15439 c -0.86889,-2.75169 -1.41993,-5.51036 -1.65382,-8.37138 z M 92.856373,96.1092 59.787813,15.75306 c -12.67349,6.50834 -24.0329,15.21772 -33.6196,25.79639 l 59.41638,59.41744 c 2.20486,-1.88383 4.62138,-3.53838 7.27177,-4.85773 M 106.29716,92.14748 V 2.63397 C 92.199153,3.41466 78.418993,6.82742 65.516193,12.89095 l 33.17404,80.80169 c 2.434167,-0.78316 4.961107,-1.33 7.606927,-1.54515 M 151.72137,22.80821 C 146.53132,19.28926 144.00439,13.23033 144.98335,7.04369 134.95566,4.28745 124.59285,2.86325 114.24345,2.52392 V 92.1475 c 2.63242,0.32102 5.17699,0.76199 7.82282,1.65096 l 29.6551,-70.99031 v 3e-5 4e-5 z"
     id="path28" />
</svg>
